<svg width="570" height="253" viewBox="0 0 570 253" fill="none" xmlns="http://www.w3.org/2000/svg">
<path d="M0 182.836V70L2 68H20L22 69.7813V112L25 115H74L75 114L76 112V71L77 70L79 68H97L99 70V182L96.7628 184H79H78L76 182.5V138L74 136H26H25L24 137L23 138L22 139V183L21 184L20 185H2L1 184L0 182.836Z" fill="#FDFDFB"/>
<path d="M336.237 68L335.237 69L335 182L336.237 183H356.737L357.237 182V147L364.737 140H366.237L404.237 183H428.237L429.237 182V181C429.237 180.6 397.904 143.5 382.237 125L381.237 124V122L425.237 71L426.237 69V68H425.237H402.237L359.237 116.079H357.237V69L356.237 68H336.237Z" fill="#FDFDFB"/>
<path d="M247.008 94.506C253.86 93.08 261.002 93.7371 267.452 96.3871C273.902 99.0371 279.345 103.55 283.033 109.307C285.787 113.608 287.468 118.468 287.943 123.504C288.418 128.54 287.675 133.613 285.771 138.324C283.868 143.035 280.856 147.254 276.975 150.648C273.093 154.043 268.448 156.519 263.405 157.883C256.659 159.723 249.489 159.503 242.879 157.251C236.268 154.999 230.541 150.827 226.485 145.306C222.439 139.789 220.265 133.197 220.262 126.437H190.263C190.252 139.906 194.815 153.008 203.254 163.733C209.572 171.743 217.818 178.143 227.277 182.38C236.736 186.617 247.122 188.562 257.536 188.047C267.949 187.532 278.075 184.572 287.036 179.424C295.997 174.276 303.522 167.096 308.96 158.505C316.212 147.001 319.357 133.518 317.913 120.123C316.47 106.728 310.518 94.1596 300.969 84.3439C291.413 74.5041 278.787 67.9522 265.016 65.6873C251.245 63.4224 237.085 65.5689 224.694 71.7993C234.015 77.4074 241.697 85.2239 247.008 94.506Z" fill="white"/>
<path d="M192.992 158.494C186.14 159.92 178.998 159.263 172.548 156.613C166.098 153.963 160.655 149.45 156.967 143.693C154.211 139.393 152.528 134.532 152.051 129.496C151.574 124.459 152.316 119.384 154.218 114.672C156.121 109.96 159.132 105.74 163.014 102.344C166.895 98.9487 171.541 96.471 176.584 95.1069C183.33 93.2627 190.502 93.4806 197.115 95.7305C203.728 97.9805 209.457 102.152 213.515 107.673C217.555 113.196 219.738 119.795 219.738 126.542H249.726C249.735 113.076 245.172 99.9784 236.735 89.2563C230.416 81.2472 222.169 74.8473 212.71 70.6114C203.251 66.3754 192.864 64.4312 182.451 64.9474C172.038 65.4635 161.912 68.4243 152.951 73.5733C143.991 78.7222 136.466 85.9038 131.029 94.4955C123.779 106 120.636 119.484 122.081 132.879C123.526 146.274 129.481 158.842 139.031 168.656C148.586 178.493 161.21 185.044 174.979 187.309C188.748 189.574 202.906 187.429 215.295 181.201C205.978 175.591 198.301 167.775 192.992 158.494Z" fill="white"/>
<path d="M429.977 44.352C429.983 44.352 430.047 44.3431 430.166 44.3267C432.238 44.0407 450.832 41.4746 460.887 44.352C471.518 47.394 566.409 203.825 566.409 203.825C566.409 203.825 566.515 204.093 567.084 204.796C567.654 205.5 566.872 206.255 566.409 206.229C565.946 206.204 536.909 209.723 534.062 206.908C531.215 204.093 429.799 48.0125 429.299 47.1672C428.799 46.3219 429.016 45.5128 429.298 45.0662C429.579 44.6196 429.87 44.352 429.977 44.352Z" fill="#FDFDFB" stroke="white"/>
<path d="M468.131 141.313L429.218 206.161C428.704 206.775 429.218 207.44 429.54 207.696H457.197C461.313 207.696 463.629 206.161 464.272 205.394C471.454 194.138 486.011 171.243 486.783 169.708C487.555 168.173 487.319 167.533 487.105 167.406C481.745 159.347 470.832 142.847 470.06 141.313C469.289 139.778 468.452 140.673 468.131 141.313Z" fill="#FDFDFB" stroke="white"/>
<path d="M527.951 110.142L568.737 46.9531C569.269 46.3609 568.774 45.6749 568.46 45.4058L540.82 44.2542C536.706 44.0827 534.347 45.5203 533.682 46.2605C526.175 57.2103 510.957 79.4855 510.141 80.9874C509.324 82.4892 509.541 83.1381 509.752 83.2749C514.873 91.5513 525.296 108.496 526.023 110.062C526.749 111.628 527.611 110.768 527.951 110.142Z" fill="#FDFDFB" stroke="white"/>
</svg>
